<svg xmlns="http://www.w3.org/2000/svg" xml:space="preserve" width="96" height="47.006" style="position:absolute;inset:0;width:70px;height:34.275px;display:block;margin:auto">
  <path d="M95.922 37.152a1.798 1.798 0 0 0-2.226-1.174l-1.722.546c-5.898 1.877-16.878 5.372-24.29 5.372-7.584 0-11.553-4.475-11.553-8.896 0-5.04 3.658-8.698 8.698-8.698 2.224 0 4.34.841 5.935 2.343.318.347.77.546 1.242.546l.113-.004c.928-.062 1.632-.868 1.572-1.772-.19-10.533-7.483-18.476-16.964-18.476-.605 0-1.225.033-1.84.098-1.434.152-3.097.615-4.941 1.376-5.781 2.386-9.788 7.107-13.663 11.673-1.675 1.974-3.408 4.015-5.244 5.811-3.545 3.466-7.974 6.735-13.538 9.993-5.19 3.038-10.62 5.347-16.118 6.855a1.783 1.783 0 0 0-1.338 2.13 1.791 1.791 0 0 0 1.734 1.385c.133 0 .266-.015.414-.049 1.33-.354 2.657-.801 3.94-1.232.994-.333 1.987-.667 2.987-.962 9.223-2.716 16.729-4.295 23.62-4.969 5.473-.537 9.89-.302 13.942.72 2.036.515 4.134 1.285 6.236 2.293.948.454 1.884 1.008 2.79 1.543.998.59 2.03 1.2 3.104 1.694 2.46 1.134 5.226 1.708 8.218 1.708 3.269 0 6.892-.67 11.075-2.049 1.797-.592 3.77-1.282 5.806-1.995 3.663-1.281 7.449-2.606 10.835-3.586a1.78 1.78 0 0 0 1.176-2.224zM94.46 38.42c-3.403.984-7.204 2.314-10.88 3.6-2.03.711-3.996 1.399-5.787 1.99-4.082 1.345-7.602 1.998-10.762 1.998h-.001c-2.847 0-5.471-.544-7.8-1.616-1.025-.473-2.036-1.07-3.013-1.647-.924-.546-1.88-1.11-2.867-1.584-2.162-1.035-4.323-1.829-6.423-2.359-2.736-.69-5.646-1.026-8.9-1.026-1.702 0-3.463.092-5.384.279-6.956.681-14.52 2.271-23.804 5.006a82.928 82.928 0 0 0-3.022.974c-1.27.426-2.581.867-3.863 1.209a.793.793 0 0 1-.933-.587.786.786 0 0 1 .607-.938c5.604-1.537 11.115-3.88 16.379-6.962 5.636-3.3 10.127-6.617 13.732-10.142 1.869-1.828 3.617-3.887 5.307-5.878 3.798-4.475 7.726-9.103 13.282-11.396 1.758-.725 3.328-1.165 4.667-1.307.58-.062 1.163-.092 1.733-.092 8.92 0 15.784 7.521 15.965 17.518.025.379-.262.708-.687.734a.715.715 0 0 1-.53-.248 9.652 9.652 0 0 0-6.646-2.642c-5.62 0-9.698 4.079-9.698 9.698 0 4.917 4.312 9.896 12.554 9.896 7.566 0 18.643-3.525 24.593-5.42l1.715-.543a.788.788 0 0 1 .973.514.782.782 0 0 1-.507.971zM70.955 9.564a.951.951 0 1 1 1.902 0 .951.951 0 0 1-1.902 0zm6.425 25.951a.612.612 0 1 1 1.224 0 .612.612 0 0 1-1.224 0zm-1.094-6.57a.612.612 0 1 1 1.224 0 .612.612 0 0 1-1.224 0zM64.568 3.23a.799.799 0 1 1 1.598 0 .799.799 0 0 1-1.598 0zM66.913.552a.552.552 0 1 1 1.104 0 .552.552 0 0 1-1.104 0zm11.323 18.344a.542.542 0 1 1 1.084 0 .542.542 0 0 1-1.084 0zm-7.114 10.15a.706.706 0 1 1 1.412 0 .706.706 0 0 1-1.412 0zM57.376 3.29a.706.706 0 1 1 1.412 0 .706.706 0 0 1-1.412 0zm16.652 7.368a.707.707 0 1 1 1.414 0 .707.707 0 0 1-1.414 0zm4.769 11.913a.706.706 0 1 1 1.412 0 .706.706 0 0 1-1.412 0zm-5.076-6.088a1.134 1.134 0 1 1 2.268 0 1.134 1.134 0 0 1-2.268 0zm-.877 14.926a1.133 1.133 0 1 1 2.266 0 1.133 1.133 0 0 1-2.266 0z" style="fill:white;"/>
</svg>